<mxfile host="app.diagrams.net" modified="2024-02-27T12:02:50.796Z" agent="Mozilla/5.0 (Windows NT 10.0; Win64; x64) AppleWebKit/537.36 (KHTML, like Gecko) Chrome/109.0.0.0 Safari/537.36" version="23.1.3" etag="H48WndPSrqn942r6p08e" type="github">
  <diagram name="Страница — 1" id="qo7mLrB6tLQQB5oeiX6B">
    <mxGraphModel>
      <root>
        <mxCell id="0" />
        <mxCell id="1" parent="0" />
      </root>
    </mxGraphModel>
  </diagram>
</mxfile>
